<svg xmlns="http://www.w3.org/2000/svg" viewBox="0 0 64 64"><rect width="64" height="64" rx="14" fill="#0F5C46"/><path transform="translate(4.82,33)" d="M13.839 -17.724V-6.825H17.241V-17.724ZM4.032 -6.048V1.806H17.241V-6.048ZM13.902000000000001 -3.402V-0.8400000000000001H7.371V-3.402ZM1.953 -16.674V-14.028H7.497000000000001C7.035 -11.823 4.914000000000001 -9.891 0.777 -8.883000000000001L2.037 -6.237C7.9590000000000005 -7.728000000000001 11.151000000000002 -11.298 11.151000000000002 -16.674Z M24.0 -11.151000000000002H31.518V-8.862H24.0ZM20.64 -16.548000000000002V-6.195H26.079V-2.898H18.876V-0.168H36.705V-2.898H29.46V-6.195H34.878V-16.548000000000002H31.518V-13.776000000000002H24.0V-16.548000000000002Z M37.878 -16.044V-2.5620000000000003H47.559000000000005V-16.044ZM44.241 -13.398000000000001V-5.208H41.217V-13.398000000000001ZM50.05800000000001 -17.745V2.037H53.46000000000001V-17.745Z" fill="#FFFFFF"/><circle cx="21" cy="46" r="4.5" fill="none" stroke="#E0A43C" stroke-width="2.4"/><path d="M24.5 49.5l3 3" stroke="#E0A43C" stroke-width="2.6" stroke-linecap="round"/><path transform="translate(28.79725,52)" d="M4.6835 0.203C5.5535000000000005 0.203 6.5975 -0.058 7.4095 -0.7685000000000001L6.409000000000001 -2.4650000000000003C5.9885 -2.1315 5.495500000000001 -1.885 4.9735000000000005 -1.885C3.9730000000000003 -1.885 3.2190000000000003 -2.7550000000000003 3.2190000000000003 -4.1325C3.2190000000000003 -5.495500000000001 3.9295 -6.3655 5.075 -6.3655C5.423 -6.3655 5.742 -6.235 6.119000000000001 -5.9305L7.322500000000001 -7.569C6.699000000000001 -8.105500000000001 5.916 -8.4535 4.915500000000001 -8.4535C2.6100000000000003 -8.4535 0.5800000000000001 -6.8585 0.5800000000000001 -4.1325C0.5800000000000001 -1.3920000000000001 2.3635 0.203 4.6835 0.203Z M12.112000000000002 0.203C14.200000000000001 0.203 16.143 -1.3920000000000001 16.143 -4.1325C16.143 -6.8585 14.200000000000001 -8.4535 12.112000000000002 -8.4535C10.009500000000001 -8.4535 8.066500000000001 -6.8585 8.066500000000001 -4.1325C8.066500000000001 -1.3920000000000001 10.009500000000001 0.203 12.112000000000002 0.203ZM12.112000000000002 -1.885C11.140500000000001 -1.885 10.7055 -2.7550000000000003 10.7055 -4.1325C10.7055 -5.495500000000001 11.140500000000001 -6.3655 12.112000000000002 -6.3655C13.069 -6.3655 13.504000000000001 -5.495500000000001 13.504000000000001 -4.1325C13.504000000000001 -2.7550000000000003 13.069 -1.885 12.112000000000002 -1.885Z M17.467000000000002 0.0H20.048000000000002V-5.510000000000001C20.526500000000002 -6.0175 20.976000000000003 -6.2495 21.353 -6.2495C22.0055 -6.2495 22.310000000000002 -5.9305 22.310000000000002 -4.785V0.0H24.891000000000002V-5.510000000000001C25.384 -6.0175 25.8335 -6.2495 26.210500000000003 -6.2495C26.863000000000003 -6.2495 27.153000000000002 -5.9305 27.153000000000002 -4.785V0.0H29.734V-5.104C29.734 -7.163 28.951 -8.4535 27.153000000000002 -8.4535C26.051000000000002 -8.4535 25.282500000000002 -7.8155 24.572000000000003 -7.0905000000000005C24.151500000000002 -7.9750000000000005 23.4555 -8.4535 22.310000000000002 -8.4535C21.1935 -8.4535 20.483000000000004 -7.888000000000001 19.8015 -7.2065H19.758000000000003L19.5695 -8.2505H17.467000000000002Z" fill="#E0A43C"/></svg>